<svg version="1.1" id="Layer_1" xmlns="http://www.w3.org/2000/svg" xmlns:xlink="http://www.w3.org/1999/xlink" x="0px" y="0px"
	 width="100%" viewBox="0 0 1200 1200"  xml:space="preserve">
<path fill="#000000" opacity="1.000000" stroke="none" 
	d="
M529.000000,1201.000000 
	C352.666656,1201.000000 176.833328,1201.000000 1.000000,1201.000000 
	C1.000000,801.000000 1.000000,401.000000 1.000000,1.000000 
	C401.000000,1.000000 801.000000,1.000000 1201.000000,1.000000 
	C1201.000000,401.000000 1201.000000,801.000000 1201.000000,1201.000000 
	C977.166687,1201.000000 753.333313,1201.000000 529.000000,1201.000000 
M711.980103,519.296265 
	C713.653442,509.699463 715.902405,500.156525 716.807373,490.487823 
	C717.462402,483.488739 717.163208,476.160095 715.811218,469.268463 
	C713.669495,458.351471 711.230103,447.313629 707.230469,436.979553 
	C700.033081,418.383698 687.223816,403.677124 671.755249,391.266632 
	C661.632202,383.144928 650.283264,377.033813 638.007446,373.176117 
	C623.328430,368.563171 608.216248,365.665436 592.670044,368.032501 
	C583.669678,369.402924 574.448975,370.209595 565.797729,372.825256 
	C539.017212,380.922180 518.418762,397.515961 503.033203,420.760345 
	C492.873993,436.108826 486.586609,453.031281 485.217896,471.238800 
	C483.874298,489.112213 485.275970,506.828430 491.816040,524.054993 
	C502.722595,552.783020 521.723999,573.985291 548.854370,587.850891 
	C559.089050,593.081604 570.010193,596.670471 581.584290,598.412598 
	C594.906921,600.417969 608.056396,600.650635 621.326782,598.352417 
	C635.245178,595.942017 648.237671,591.156616 660.345947,583.936279 
	C673.576355,576.046875 684.918701,566.104370 694.123779,553.648193 
	C701.749939,543.328430 707.457764,532.086609 711.980103,519.296265 
M445.998749,676.115723 
	C446.332153,677.693665 446.886078,679.260986 446.962250,680.851257 
	C447.373718,689.438049 447.565369,698.036194 448.040802,706.618835 
	C448.301636,711.327759 448.972046,716.013916 449.487488,720.997437 
	C453.234161,720.997437 456.891785,721.211975 460.498779,720.878540 
	C461.727173,720.764954 463.522522,719.481567 463.857666,718.370361 
	C464.886505,714.959229 465.263031,711.357300 466.018097,707.856567 
	C470.299225,688.008606 474.662292,668.178162 478.897949,648.320557 
	C480.444977,641.067749 481.718506,633.756653 483.207550,625.999329 
	C479.476990,625.999329 476.319824,626.203369 473.200836,625.945374 
	C469.659302,625.652466 468.552490,627.066040 467.871033,630.528442 
	C464.994263,645.144958 461.688324,659.677063 458.539337,674.239990 
	C458.392975,674.232666 458.246613,674.225281 458.100220,674.217957 
	C457.048157,658.203003 455.996094,642.188049 454.943756,626.169189 
	C450.003052,626.169189 445.709564,626.169189 441.159607,626.169189 
	C434.462402,657.715637 427.788483,689.152344 421.068024,720.808289 
	C426.030640,720.808289 430.811737,720.808289 435.613770,720.808289 
	C436.766815,715.399780 437.922638,710.178711 438.985291,704.938843 
	C440.083038,699.525635 440.937836,694.058777 442.184235,688.681519 
	C443.224579,684.193359 444.677246,679.800781 445.998749,676.115723 
M536.431519,678.060425 
	C537.438965,672.863892 538.370972,667.154419 543.987427,665.226746 
	C548.643372,663.628723 553.846069,663.623779 559.210144,662.855225 
	C556.040039,677.612854 553.023010,691.396240 550.131775,705.205933 
	C548.094849,714.935364 552.145020,721.471069 561.773499,722.691589 
	C564.659973,723.057495 569.412720,723.858276 570.882874,719.398865 
	C572.029358,715.921204 572.268372,712.144409 572.956360,708.240784 
	C570.644897,708.088440 568.529053,707.949036 565.889160,707.775146 
	C565.889160,706.237915 565.649231,704.687073 565.927734,703.235840 
	C567.890320,693.011292 570.066345,682.827026 571.962952,672.590759 
	C573.668518,663.385925 573.549744,663.363892 582.838074,662.733643 
	C583.629517,658.694519 584.441040,654.553162 585.370789,649.808228 
	C581.955017,649.808228 579.542236,649.808228 576.773560,649.808228 
	C577.968018,644.017395 579.061829,638.714539 580.182739,633.280518 
	C574.673767,633.280518 569.911438,633.280518 565.510193,633.280518 
	C564.223999,638.995605 563.015015,644.367371 561.724060,650.103577 
	C554.810486,649.584229 547.883240,648.359924 543.346741,652.792664 
	C541.455627,651.590454 540.274414,650.292297 538.938477,650.106384 
	C536.324646,649.742737 533.620483,650.090088 530.961121,649.974121 
	C528.321411,649.859192 527.436890,650.829651 526.884766,653.596863 
	C523.580872,670.157959 519.918945,686.647522 516.407593,703.167480 
	C515.176819,708.957825 514.032288,714.766418 512.813599,720.737183 
	C518.275635,720.737183 523.040771,720.737183 527.626343,720.737183 
	C528.020264,718.857178 528.366089,717.267090 528.685791,715.671753 
	C531.147339,703.392029 533.603699,691.111389 536.431519,678.060425 
M599.922485,703.289856 
	C598.604248,709.060547 597.286072,714.831299 595.910583,720.852966 
	C601.120972,720.852966 605.754517,720.852966 610.755066,720.852966 
	C613.505920,707.995483 616.410522,695.185791 618.943970,682.303101 
	C620.577820,673.994751 622.124573,665.618835 622.851318,657.199036 
	C623.401062,650.830017 617.988525,647.584534 611.936890,650.016846 
	C609.609802,650.952209 607.452209,652.309387 604.872375,653.654175 
	C606.757812,644.384277 608.579773,635.426392 610.419373,626.381592 
	C596.312622,625.169373 596.311523,625.169128 593.270752,637.404602 
	C593.152832,637.878845 593.104858,638.369934 593.004456,638.848999 
	C588.533997,660.177979 584.065063,681.507202 579.586792,702.834534 
	C578.342712,708.759155 577.070190,714.677795 575.792603,720.684326 
	C581.370850,720.684326 586.119873,720.684326 590.437866,720.684326 
	C594.339417,702.829590 598.080872,685.345398 602.077820,667.919861 
	C602.525757,665.966614 604.420593,664.345276 605.644470,662.570007 
	C606.310730,662.816467 606.976990,663.062927 607.643250,663.309387 
	C606.172791,676.523438 602.199890,689.333984 599.922485,703.289856 
M674.223755,625.998962 
	C670.392944,625.998962 666.551147,626.178040 662.734802,625.943237 
	C659.600769,625.750366 658.551086,627.051941 657.930786,630.011841 
	C653.095581,653.084229 648.048950,676.112305 643.132141,699.167786 
	C641.618591,706.265259 640.304871,713.405457 638.867432,720.689697 
	C644.458862,720.689697 649.543335,720.689697 654.488892,720.689697 
	C657.100830,708.314331 659.644226,696.263550 662.161987,684.334290 
	C679.530701,682.306213 687.033630,673.827332 691.791626,658.824585 
	C693.480652,653.499023 694.360046,647.377258 693.563904,641.917175 
	C691.985596,631.092407 687.892700,628.194702 674.223755,625.998962 
M500.522461,718.060791 
	C503.347961,713.425293 507.366089,709.120667 508.762024,704.088623 
	C512.140808,691.908508 514.374084,679.405090 516.924255,667.002197 
	C519.409790,654.913269 510.828644,647.294739 498.583252,649.708862 
	C487.372498,651.919128 483.744171,660.384399 481.223602,669.438477 
	C478.264038,680.069519 475.956818,690.941956 474.303162,701.851624 
	C473.479767,707.283691 472.323547,713.459961 476.858704,718.334045 
	C482.285980,724.166992 491.733093,724.230774 500.522461,718.060791 
M724.389465,651.920410 
	C716.332397,646.458374 702.969116,649.330078 698.835571,657.731079 
	C696.233154,663.019958 693.763977,668.566650 692.491516,674.277588 
	C689.880188,685.997192 687.574341,697.842407 686.187622,709.757446 
	C685.253052,717.787964 692.208618,723.940613 700.227722,722.879944 
	C710.432007,721.530212 716.427246,718.738403 719.803894,707.400452 
	C723.356628,695.471313 725.282471,683.061768 728.031677,670.887573 
	C729.524658,664.276367 730.221863,657.888306 724.389465,651.920410 
M788.148438,651.006653 
	C784.049683,650.528381 779.846130,649.229309 775.873352,649.737061 
	C766.698792,650.909485 761.324768,657.296204 759.129883,665.670593 
	C755.629456,679.026184 752.823608,692.575134 750.098328,706.117615 
	C748.846069,712.340271 752.501221,718.944458 757.500671,721.112976 
	C762.672058,723.356079 767.894226,722.980957 772.956482,720.977112 
	C780.667297,717.924988 787.593506,706.578247 786.599731,695.435120 
	C775.116821,693.915222 775.249329,693.959900 771.783203,704.245056 
	C770.947754,706.724121 770.169067,710.135498 765.478149,709.775452 
	C765.047058,708.017578 764.035583,706.119568 764.270569,704.390991 
	C764.770508,700.713379 766.428833,697.156982 766.666809,693.489502 
	C766.944580,689.208435 769.149292,688.804993 772.545288,688.954834 
	C776.868408,689.145508 781.216614,688.818726 785.534302,689.062927 
	C788.539307,689.232910 789.541992,687.818054 790.023987,685.206421 
	C790.819519,680.895569 791.807495,676.619873 792.730286,672.332825 
	C794.352539,664.795959 795.483643,657.354248 788.148438,651.006653 
M740.068542,648.758972 
	C738.508057,656.576416 737.007080,664.406311 735.374634,672.208679 
	C731.995300,688.360779 728.545959,704.498230 725.101807,720.752991 
	C730.274597,720.752991 735.049561,720.752991 739.877197,720.752991 
	C746.591248,689.134583 753.257324,657.742188 759.968811,626.135986 
	C754.828857,626.135986 750.192810,626.135986 745.219177,626.135986 
	C743.634399,633.463623 742.061951,640.734497 740.068542,648.758972 
z"/>
<path fill="#F76F72" opacity="1.000000" stroke="none" 
	d="
M711.912842,519.699219 
	C707.457764,532.086609 701.749939,543.328430 694.123779,553.648193 
	C684.918701,566.104370 673.576355,576.046875 660.345947,583.936279 
	C648.237671,591.156616 635.245178,595.942017 621.326782,598.352417 
	C608.056396,600.650635 594.906921,600.417969 581.584290,598.412598 
	C570.010193,596.670471 559.089050,593.081604 548.854370,587.850891 
	C521.723999,573.985291 502.722595,552.783020 491.816040,524.054993 
	C485.275970,506.828430 483.874298,489.112213 485.217896,471.238800 
	C486.586609,453.031281 492.873993,436.108826 503.033203,420.760345 
	C518.418762,397.515961 539.017212,380.922180 565.797729,372.825256 
	C574.448975,370.209595 583.669678,369.402924 592.670044,368.032501 
	C608.216248,365.665436 623.328430,368.563171 638.007446,373.176117 
	C650.283264,377.033813 661.632202,383.144928 671.755249,391.266632 
	C687.223816,403.677124 700.033081,418.383698 707.230469,436.979553 
	C711.230103,447.313629 713.669495,458.351471 715.811218,469.268463 
	C717.163208,476.160095 717.462402,483.488739 716.807373,490.487823 
	C715.902405,500.156525 713.653442,509.699463 711.912842,519.699219 
M550.172607,396.042236 
	C552.328613,396.028046 554.485474,396.045776 556.640503,395.993073 
	C561.324341,395.878632 561.946838,394.722290 559.471130,389.822479 
	C556.098328,392.035004 552.770203,394.218262 548.606689,396.073425 
	C548.087891,396.361755 547.569153,396.650116 547.050354,396.938477 
	C547.165466,397.133820 547.280518,397.329163 547.395569,397.524536 
	C548.041321,397.116486 548.687012,396.708466 550.172607,396.042236 
M634.842468,580.009460 
	C641.562805,576.833496 648.403503,573.883606 654.956360,570.393250 
	C658.634338,568.434143 663.197510,566.290649 660.077148,560.471008 
	C659.874084,560.092285 660.567627,559.303162 660.677124,558.675842 
	C661.928833,551.501831 664.087280,545.062622 670.650208,540.564392 
	C673.649719,538.508545 675.499573,534.775391 678.425537,531.107666 
	C679.562378,536.577637 680.489746,541.039551 681.430115,545.564209 
	C701.697266,527.426819 710.672729,465.923950 695.139099,447.353333 
	C689.410706,460.327789 677.432434,465.446167 666.045044,471.749817 
	C673.116638,475.246307 679.168335,469.165588 685.978943,469.791107 
	C685.900635,470.376068 686.010437,471.123718 685.704651,471.610352 
	C678.760071,482.664062 671.753418,493.678772 664.797974,504.725677 
	C662.541626,508.309235 659.043030,511.779236 658.520447,515.628113 
	C657.747131,521.323120 659.236877,527.303833 659.552368,533.174255 
	C659.872131,539.124573 662.415344,545.549866 654.993347,549.701050 
	C651.636536,551.578552 648.424988,554.434143 646.278564,557.610291 
	C641.553345,564.602600 637.546997,572.080811 632.830872,579.747437 
	C632.745911,580.111816 632.661011,580.476257 632.576050,580.840698 
	C633.075317,580.587280 633.574585,580.333923 634.842468,580.009460 
M508.057922,526.341125 
	C517.255981,545.797974 530.907593,561.222961 549.580383,572.062195 
	C564.337524,580.628540 580.213135,585.387756 597.458496,586.103882 
	C597.232971,584.750854 597.349548,583.498047 596.829285,582.624634 
	C590.123901,571.368530 590.198669,558.753235 590.203735,546.397644 
	C590.207031,538.383972 588.845581,531.169128 584.778076,524.369202 
	C583.773682,522.690125 583.093567,520.805298 582.003418,519.191345 
	C576.773132,511.447845 575.721375,503.121277 578.675598,494.555695 
	C566.468750,491.031738 553.310852,493.908325 542.352539,486.439636 
	C539.965637,488.249298 537.387451,490.203979 534.977051,492.031433 
	C528.860779,486.750397 522.921265,481.788422 517.210815,476.575562 
	C515.765808,475.256439 514.160583,473.139709 514.155457,471.384979 
	C514.132996,463.792664 514.651306,456.197357 515.054565,448.607452 
	C515.093384,447.876862 515.544312,447.033936 516.060364,446.483551 
	C521.956177,440.195557 527.974243,434.020599 533.793457,427.663300 
	C535.749207,425.526672 536.973511,422.702545 538.995239,420.648621 
	C541.743713,417.856476 544.936829,415.502075 548.300049,412.654480 
	C538.429016,408.110229 546.053467,402.650879 547.518860,396.804962 
	C545.522888,397.924927 544.289612,398.362823 543.381042,399.167358 
	C536.719360,405.066162 529.151550,410.278168 523.749817,417.178650 
	C516.902710,425.925415 510.814941,435.600586 506.223022,445.704071 
	C498.454773,462.796295 496.917694,481.193665 500.188202,499.618286 
	C501.756287,508.452118 505.287079,516.937561 508.057922,526.341125 
M592.399048,418.006653 
	C597.372314,420.226624 602.311584,421.295227 607.461487,418.314087 
	C608.484924,417.721619 610.078125,417.895233 611.375854,418.030151 
	C619.435730,418.868225 627.486267,419.795959 635.521423,420.691925 
	C635.960083,419.579285 636.481384,418.565094 636.764038,417.488281 
	C638.161255,412.165527 636.469727,410.301849 631.230652,412.014465 
	C625.869263,413.767120 621.411743,412.335876 616.907776,409.167633 
	C617.617981,408.053864 618.371033,406.872955 619.268372,405.465729 
	C617.692871,405.072449 616.468933,404.766937 615.405273,404.501404 
	C614.832703,407.352966 614.269836,410.156494 613.564026,413.671875 
	C609.427368,410.248077 605.882446,407.314026 601.892090,404.011261 
	C601.892090,406.607941 601.892090,408.538788 601.892090,410.352875 
	C595.866089,406.027802 589.977112,401.749451 584.009705,397.583405 
	C583.264587,397.063202 582.098877,396.938019 581.138062,396.966675 
	C572.393433,397.227325 567.819092,403.250336 563.041260,410.006195 
	C571.355286,409.373322 579.088745,408.784607 586.876770,408.191742 
	C585.836060,416.387085 584.220459,415.712921 592.399048,418.006653 
M661.998047,461.498352 
	C661.251221,460.082489 660.667419,458.547028 659.730896,457.270264 
	C653.977356,449.425903 648.156433,441.630768 642.325745,433.843323 
	C641.279480,432.445831 640.083618,431.160400 638.956787,429.823242 
	C638.505066,430.174561 638.053406,430.525879 637.601685,430.877228 
	C645.843079,442.497375 654.084473,454.117523 662.325928,465.737671 
	C662.604492,465.584900 662.883118,465.432129 663.161743,465.279358 
	C662.790833,464.270233 662.419922,463.261108 661.998047,461.498352 
M626.345276,399.923035 
	C628.722229,399.238251 631.099182,398.553467 633.664368,397.814453 
	C629.953186,395.912628 626.593445,394.190918 623.212830,392.458496 
	C620.047974,397.032410 620.566345,398.823944 626.345276,399.923035 
M676.955139,436.436615 
	C677.700562,436.707489 678.445923,436.978394 679.191406,437.249298 
	C679.220032,436.435638 679.605286,435.214233 679.218262,434.875824 
	C677.045593,432.975616 674.686768,431.288177 672.391479,429.528137 
	C672.074951,429.849121 671.758362,430.170105 671.441833,430.491058 
	C673.107361,432.312592 674.772827,434.134125 676.955139,436.436615 
M669.846130,427.127411 
	C669.994995,427.549683 670.143860,427.971985 670.292664,428.394287 
	C670.396912,427.995789 670.501160,427.597321 669.846130,427.127411 
z"/>
<path fill="#F76E71" opacity="1.000000" stroke="none" 
	d="
M445.973022,675.740784 
	C444.677246,679.800781 443.224579,684.193359 442.184235,688.681519 
	C440.937836,694.058777 440.083038,699.525635 438.985291,704.938843 
	C437.922638,710.178711 436.766815,715.399780 435.613770,720.808289 
	C430.811737,720.808289 426.030640,720.808289 421.068024,720.808289 
	C427.788483,689.152344 434.462402,657.715637 441.159607,626.169189 
	C445.709564,626.169189 450.003052,626.169189 454.943756,626.169189 
	C455.996094,642.188049 457.048157,658.203003 458.100220,674.217957 
	C458.246613,674.225281 458.392975,674.232666 458.539337,674.239990 
	C461.688324,659.677063 464.994263,645.144958 467.871033,630.528442 
	C468.552490,627.066040 469.659302,625.652466 473.200836,625.945374 
	C476.319824,626.203369 479.476990,625.999329 483.207550,625.999329 
	C481.718506,633.756653 480.444977,641.067749 478.897949,648.320557 
	C474.662292,668.178162 470.299225,688.008606 466.018097,707.856567 
	C465.263031,711.357300 464.886505,714.959229 463.857666,718.370361 
	C463.522522,719.481567 461.727173,720.764954 460.498779,720.878540 
	C456.891785,721.211975 453.234161,720.997437 449.487488,720.997437 
	C448.972046,716.013916 448.301636,711.327759 448.040802,706.618835 
	C447.565369,698.036194 447.373718,689.438049 446.962250,680.851257 
	C446.886078,679.260986 446.332153,677.693665 445.973022,675.740784 
z"/>
<path fill="#F76E71" opacity="1.000000" stroke="none" 
	d="
M536.246582,678.445679 
	C533.603699,691.111389 531.147339,703.392029 528.685791,715.671753 
	C528.366089,717.267090 528.020264,718.857178 527.626343,720.737183 
	C523.040771,720.737183 518.275635,720.737183 512.813599,720.737183 
	C514.032288,714.766418 515.176819,708.957825 516.407593,703.167480 
	C519.918945,686.647522 523.580872,670.157959 526.884766,653.596863 
	C527.436890,650.829651 528.321411,649.859192 530.961121,649.974121 
	C533.620483,650.090088 536.324646,649.742737 538.938477,650.106384 
	C540.274414,650.292297 541.455627,651.590454 543.346741,652.792664 
	C547.883240,648.359924 554.810486,649.584229 561.724060,650.103577 
	C563.015015,644.367371 564.223999,638.995605 565.510193,633.280518 
	C569.911438,633.280518 574.673767,633.280518 580.182739,633.280518 
	C579.061829,638.714539 577.968018,644.017395 576.773560,649.808228 
	C579.542236,649.808228 581.955017,649.808228 585.370789,649.808228 
	C584.441040,654.553162 583.629517,658.694519 582.838074,662.733643 
	C573.549744,663.363892 573.668518,663.385925 571.962952,672.590759 
	C570.066345,682.827026 567.890320,693.011292 565.927734,703.235840 
	C565.649231,704.687073 565.889160,706.237915 565.889160,707.775146 
	C568.529053,707.949036 570.644897,708.088440 572.956360,708.240784 
	C572.268372,712.144409 572.029358,715.921204 570.882874,719.398865 
	C569.412720,723.858276 564.659973,723.057495 561.773499,722.691589 
	C552.145020,721.471069 548.094849,714.935364 550.131775,705.205933 
	C553.023010,691.396240 556.040039,677.612854 559.210144,662.855225 
	C553.846069,663.623779 548.643372,663.628723 543.987427,665.226746 
	C538.370972,667.154419 537.438965,672.863892 536.246582,678.445679 
z"/>
<path fill="#F76E71" opacity="1.000000" stroke="none" 
	d="
M599.956421,702.859375 
	C602.199890,689.333984 606.172791,676.523438 607.643250,663.309387 
	C606.976990,663.062927 606.310730,662.816467 605.644470,662.570007 
	C604.420593,664.345276 602.525757,665.966614 602.077820,667.919861 
	C598.080872,685.345398 594.339417,702.829590 590.437866,720.684326 
	C586.119873,720.684326 581.370850,720.684326 575.792603,720.684326 
	C577.070190,714.677795 578.342712,708.759155 579.586792,702.834534 
	C584.065063,681.507202 588.533997,660.177979 593.004456,638.848999 
	C593.104858,638.369934 593.152832,637.878845 593.270752,637.404602 
	C596.311523,625.169128 596.312622,625.169373 610.419373,626.381592 
	C608.579773,635.426392 606.757812,644.384277 604.872375,653.654175 
	C607.452209,652.309387 609.609802,650.952209 611.936890,650.016846 
	C617.988525,647.584534 623.401062,650.830017 622.851318,657.199036 
	C622.124573,665.618835 620.577820,673.994751 618.943970,682.303101 
	C616.410522,695.185791 613.505920,707.995483 610.755066,720.852966 
	C605.754517,720.852966 601.120972,720.852966 595.910583,720.852966 
	C597.286072,714.831299 598.604248,709.060547 599.956421,702.859375 
z"/>
<path fill="#F76E71" opacity="1.000000" stroke="none" 
	d="
M674.687622,625.999268 
	C687.892700,628.194702 691.985596,631.092407 693.563904,641.917175 
	C694.360046,647.377258 693.480652,653.499023 691.791626,658.824585 
	C687.033630,673.827332 679.530701,682.306213 662.161987,684.334290 
	C659.644226,696.263550 657.100830,708.314331 654.488892,720.689697 
	C649.543335,720.689697 644.458862,720.689697 638.867432,720.689697 
	C640.304871,713.405457 641.618591,706.265259 643.132141,699.167786 
	C648.048950,676.112305 653.095581,653.084229 657.930786,630.011841 
	C658.551086,627.051941 659.600769,625.750366 662.734802,625.943237 
	C666.551147,626.178040 670.392944,625.998962 674.687622,625.999268 
M665.387634,668.229492 
	C669.247925,668.376343 672.706726,667.431335 674.035339,663.423828 
	C675.603638,658.693726 677.041260,653.866455 677.897217,648.969727 
	C678.681213,644.485168 676.594971,641.725342 671.022461,642.064270 
	C669.310791,650.517883 667.579102,659.070679 665.387634,668.229492 
z"/>
<path fill="#F76E71" opacity="1.000000" stroke="none" 
	d="
M500.245056,718.310181 
	C491.733093,724.230774 482.285980,724.166992 476.858704,718.334045 
	C472.323547,713.459961 473.479767,707.283691 474.303162,701.851624 
	C475.956818,690.941956 478.264038,680.069519 481.223602,669.438477 
	C483.744171,660.384399 487.372498,651.919128 498.583252,649.708862 
	C510.828644,647.294739 519.409790,654.913269 516.924255,667.002197 
	C514.374084,679.405090 512.140808,691.908508 508.762024,704.088623 
	C507.366089,709.120667 503.347961,713.425293 500.245056,718.310181 
M498.008240,688.619629 
	C499.669525,681.156860 501.425049,673.712646 502.895630,666.212463 
	C503.129700,665.018555 502.083313,663.573486 501.628876,662.244568 
	C500.353027,662.732788 498.862335,662.961121 497.864868,663.785950 
	C496.959564,664.534485 496.301056,665.866760 496.032227,667.054504 
	C493.950867,676.250854 491.932098,685.462585 490.019867,694.695557 
	C489.194183,698.682312 488.521179,702.715881 488.106476,706.761719 
	C488.005463,707.747253 489.021545,709.523254 489.842102,709.741882 
	C490.704559,709.971619 492.148560,708.967407 492.971863,708.138367 
	C493.858734,707.245178 494.638641,706.001282 494.912079,704.786011 
	C496.054230,699.710510 496.988434,694.588257 498.008240,688.619629 
z"/>
<path fill="#F76E71" opacity="1.000000" stroke="none" 
	d="
M724.675293,652.182068 
	C730.221863,657.888306 729.524658,664.276367 728.031677,670.887573 
	C725.282471,683.061768 723.356628,695.471313 719.803894,707.400452 
	C716.427246,718.738403 710.432007,721.530212 700.227722,722.879944 
	C692.208618,723.940613 685.253052,717.787964 686.187622,709.757446 
	C687.574341,697.842407 689.880188,685.997192 692.491516,674.277588 
	C693.763977,668.566650 696.233154,663.019958 698.835571,657.731079 
	C702.969116,649.330078 716.332397,646.458374 724.675293,652.182068 
M714.993591,664.852600 
	C714.103760,663.914307 713.213928,662.976013 712.324097,662.037842 
	C710.947327,663.540100 708.775269,664.838989 708.329956,666.579529 
	C706.288452,674.559570 704.685425,682.653992 703.014038,690.725830 
	C701.930847,695.957214 700.890564,701.203796 700.097168,706.483521 
	C699.940552,707.525818 700.999756,708.750793 701.498230,709.891418 
	C702.768982,709.319519 704.212708,708.959290 705.255066,708.107788 
	C706.067261,707.444458 706.649658,706.226318 706.873779,705.158142 
	C709.631226,692.015503 712.303894,678.855042 714.993591,664.852600 
z"/>
<path fill="#F76E71" opacity="1.000000" stroke="none" 
	d="
M788.508057,651.170776 
	C795.483643,657.354248 794.352539,664.795959 792.730286,672.332825 
	C791.807495,676.619873 790.819519,680.895569 790.023987,685.206421 
	C789.541992,687.818054 788.539307,689.232910 785.534302,689.062927 
	C781.216614,688.818726 776.868408,689.145508 772.545288,688.954834 
	C769.149292,688.804993 766.944580,689.208435 766.666809,693.489502 
	C766.428833,697.156982 764.770508,700.713379 764.270569,704.390991 
	C764.035583,706.119568 765.047058,708.017578 765.478149,709.775452 
	C770.169067,710.135498 770.947754,706.724121 771.783203,704.245056 
	C775.249329,693.959900 775.116821,693.915222 786.599731,695.435120 
	C787.593506,706.578247 780.667297,717.924988 772.956482,720.977112 
	C767.894226,722.980957 762.672058,723.356079 757.500671,721.112976 
	C752.501221,718.944458 748.846069,712.340271 750.098328,706.117615 
	C752.823608,692.575134 755.629456,679.026184 759.129883,665.670593 
	C761.324768,657.296204 766.698792,650.909485 775.873352,649.737061 
	C779.846130,649.229309 784.049683,650.528381 788.508057,651.170776 
M773.947632,664.552856 
	C772.494629,668.841248 771.041687,673.129700 769.474976,677.753784 
	C772.863647,677.753784 775.275879,677.753784 777.518555,677.753784 
	C778.384766,673.877991 779.397583,670.301270 779.890564,666.654175 
	C780.078979,665.260559 779.077209,663.705994 778.617798,662.224792 
	C777.213928,662.788269 775.810120,663.351685 773.947632,664.552856 
z"/>
<path fill="#F76E71" opacity="1.000000" stroke="none" 
	d="
M740.279053,648.382202 
	C742.061951,640.734497 743.634399,633.463623 745.219177,626.135986 
	C750.192810,626.135986 754.828857,626.135986 759.968811,626.135986 
	C753.257324,657.742188 746.591248,689.134583 739.877197,720.752991 
	C735.049561,720.752991 730.274597,720.752991 725.101807,720.752991 
	C728.545959,704.498230 731.995300,688.360779 735.374634,672.208679 
	C737.007080,664.406311 738.508057,656.576416 740.279053,648.382202 
z"/>
<path fill="#000000" opacity="1.000000" stroke="none" 
	d="
M507.993439,525.960938 
	C505.287079,516.937561 501.756287,508.452118 500.188202,499.618286 
	C496.917694,481.193665 498.454773,462.796295 506.223022,445.704071 
	C510.814941,435.600586 516.902710,425.925415 523.749817,417.178650 
	C529.151550,410.278168 536.719360,405.066162 543.381042,399.167358 
	C544.289612,398.362823 545.522888,397.924927 547.518860,396.804962 
	C546.053467,402.650879 538.429016,408.110229 548.300049,412.654480 
	C544.936829,415.502075 541.743713,417.856476 538.995239,420.648621 
	C536.973511,422.702545 535.749207,425.526672 533.793457,427.663300 
	C527.974243,434.020599 521.956177,440.195557 516.060364,446.483551 
	C515.544312,447.033936 515.093384,447.876862 515.054565,448.607452 
	C514.651306,456.197357 514.132996,463.792664 514.155457,471.384979 
	C514.160583,473.139709 515.765808,475.256439 517.210815,476.575562 
	C522.921265,481.788422 528.860779,486.750397 534.977051,492.031433 
	C537.387451,490.203979 539.965637,488.249298 542.352539,486.439636 
	C553.310852,493.908325 566.468750,491.031738 578.675598,494.555695 
	C575.721375,503.121277 576.773132,511.447845 582.003418,519.191345 
	C583.093567,520.805298 583.773682,522.690125 584.778076,524.369202 
	C588.845581,531.169128 590.207031,538.383972 590.203735,546.397644 
	C590.198669,558.753235 590.123901,571.368530 596.829285,582.624634 
	C597.349548,583.498047 597.232971,584.750854 597.458496,586.103882 
	C580.213135,585.387756 564.337524,580.628540 549.580383,572.062195 
	C530.907593,561.222961 517.255981,545.797974 507.993439,525.960938 
z"/>
<path fill="#000000" opacity="1.000000" stroke="none" 
	d="
M633.247253,579.360657 
	C637.546997,572.080811 641.553345,564.602600 646.278564,557.610291 
	C648.424988,554.434143 651.636536,551.578552 654.993347,549.701050 
	C662.415344,545.549866 659.872131,539.124573 659.552368,533.174255 
	C659.236877,527.303833 657.747131,521.323120 658.520447,515.628113 
	C659.043030,511.779236 662.541626,508.309235 664.797974,504.725677 
	C671.753418,493.678772 678.760071,482.664062 685.704651,471.610352 
	C686.010437,471.123718 685.900635,470.376068 685.978943,469.791107 
	C679.168335,469.165588 673.116638,475.246307 666.045044,471.749817 
	C677.432434,465.446167 689.410706,460.327789 695.139099,447.353333 
	C710.672729,465.923950 701.697266,527.426819 681.430115,545.564209 
	C680.489746,541.039551 679.562378,536.577637 678.425537,531.107666 
	C675.499573,534.775391 673.649719,538.508545 670.650208,540.564392 
	C664.087280,545.062622 661.928833,551.501831 660.677124,558.675842 
	C660.567627,559.303162 659.874084,560.092285 660.077148,560.471008 
	C663.197510,566.290649 658.634338,568.434143 654.956360,570.393250 
	C648.403503,573.883606 641.562805,576.833496 634.254639,579.861328 
	C633.526978,579.595703 633.387085,579.478149 633.247253,579.360657 
z"/>
<path fill="#000000" opacity="1.000000" stroke="none" 
	d="
M591.989014,417.999023 
	C584.220459,415.712921 585.836060,416.387085 586.876770,408.191742 
	C579.088745,408.784607 571.355286,409.373322 563.041260,410.006195 
	C567.819092,403.250336 572.393433,397.227325 581.138062,396.966675 
	C582.098877,396.938019 583.264587,397.063202 584.009705,397.583405 
	C589.977112,401.749451 595.866089,406.027802 601.892090,410.352875 
	C601.892090,408.538788 601.892090,406.607941 601.892090,404.011261 
	C605.882446,407.314026 609.427368,410.248077 613.564026,413.671875 
	C614.269836,410.156494 614.832703,407.352966 615.405273,404.501404 
	C616.468933,404.766937 617.692871,405.072449 619.268372,405.465729 
	C618.371033,406.872955 617.617981,408.053864 616.907776,409.167633 
	C621.411743,412.335876 625.869263,413.767120 631.230652,412.014465 
	C636.469727,410.301849 638.161255,412.165527 636.764038,417.488281 
	C636.481384,418.565094 635.960083,419.579285 635.521423,420.691925 
	C627.486267,419.795959 619.435730,418.868225 611.375854,418.030151 
	C610.078125,417.895233 608.484924,417.721619 607.461487,418.314087 
	C602.311584,421.295227 597.372314,420.226624 591.989014,417.999023 
z"/>
<path fill="#000000" opacity="1.000000" stroke="none" 
	d="
M662.023560,461.875183 
	C662.419922,463.261108 662.790833,464.270233 663.161743,465.279358 
	C662.883118,465.432129 662.604492,465.584900 662.325928,465.737671 
	C654.084473,454.117523 645.843079,442.497375 637.601685,430.877228 
	C638.053406,430.525879 638.505066,430.174561 638.956787,429.823242 
	C640.083618,431.160400 641.279480,432.445831 642.325745,433.843323 
	C648.156433,441.630768 653.977356,449.425903 659.730896,457.270264 
	C660.667419,458.547028 661.251221,460.082489 662.023560,461.875183 
z"/>
<path fill="#000000" opacity="1.000000" stroke="none" 
	d="
M625.939514,399.955566 
	C620.566345,398.823944 620.047974,397.032410 623.212830,392.458496 
	C626.593445,394.190918 629.953186,395.912628 633.664368,397.814453 
	C631.099182,398.553467 628.722229,399.238251 625.939514,399.955566 
z"/>
<path fill="#000000" opacity="1.000000" stroke="none" 
	d="
M549.442017,396.401520 
	C552.770203,394.218262 556.098328,392.035004 559.471130,389.822479 
	C561.946838,394.722290 561.324341,395.878632 556.640503,395.993073 
	C554.485474,396.045776 552.328613,396.028046 549.779785,396.196838 
	C549.386902,396.351471 549.442017,396.401520 549.442017,396.401520 
z"/>
<path fill="#000000" opacity="1.000000" stroke="none" 
	d="
M676.696777,436.196136 
	C674.772827,434.134125 673.107361,432.312592 671.441833,430.491058 
	C671.758362,430.170105 672.074951,429.849121 672.391479,429.528137 
	C674.686768,431.288177 677.045593,432.975616 679.218262,434.875824 
	C679.605286,435.214233 679.220032,436.435638 679.191406,437.249298 
	C678.445923,436.978394 677.700562,436.707489 676.696777,436.196136 
z"/>
<path fill="#000000" opacity="1.000000" stroke="none" 
	d="
M633.870361,579.896851 
	C633.574585,580.333923 633.075317,580.587280 632.576050,580.840698 
	C632.661011,580.476257 632.745911,580.111816 633.039062,579.554077 
	C633.387085,579.478149 633.526978,579.595703 633.870361,579.896851 
z"/>
<path fill="#000000" opacity="1.000000" stroke="none" 
	d="
M670.225769,427.163116 
	C670.501160,427.597321 670.396912,427.995789 670.292664,428.394287 
	C670.143860,427.971985 669.994995,427.549683 670.225769,427.163116 
z"/>
<path fill="#000000" opacity="1.000000" stroke="none" 
	d="
M549.359802,396.325928 
	C548.687012,396.708466 548.041321,397.116486 547.395569,397.524536 
	C547.280518,397.329163 547.165466,397.133820 547.050354,396.938477 
	C547.569153,396.650116 548.087891,396.361755 549.024353,396.237488 
	C549.442017,396.401520 549.386902,396.351471 549.359802,396.325928 
z"/>
<path fill="#000000" opacity="1.000000" stroke="none" 
	d="
M665.617554,667.926514 
	C667.579102,659.070679 669.310791,650.517883 671.022461,642.064270 
	C676.594971,641.725342 678.681213,644.485168 677.897217,648.969727 
	C677.041260,653.866455 675.603638,658.693726 674.035339,663.423828 
	C672.706726,667.431335 669.247925,668.376343 665.617554,667.926514 
z"/>
<path fill="#000000" opacity="1.000000" stroke="none" 
	d="
M498.003540,689.051392 
	C496.988434,694.588257 496.054230,699.710510 494.912079,704.786011 
	C494.638641,706.001282 493.858734,707.245178 492.971863,708.138367 
	C492.148560,708.967407 490.704559,709.971619 489.842102,709.741882 
	C489.021545,709.523254 488.005463,707.747253 488.106476,706.761719 
	C488.521179,702.715881 489.194183,698.682312 490.019867,694.695557 
	C491.932098,685.462585 493.950867,676.250854 496.032227,667.054504 
	C496.301056,665.866760 496.959564,664.534485 497.864868,663.785950 
	C498.862335,662.961121 500.353027,662.732788 501.628906,662.244568 
	C502.083313,663.573486 503.129700,665.018555 502.895630,666.212463 
	C501.425049,673.712646 499.669525,681.156860 498.003540,689.051392 
z"/>
<path fill="#000000" opacity="1.000000" stroke="none" 
	d="
M714.996033,665.275879 
	C712.303894,678.855042 709.631226,692.015503 706.873779,705.158142 
	C706.649658,706.226318 706.067261,707.444458 705.255066,708.107788 
	C704.212708,708.959290 702.768982,709.319519 701.498230,709.891479 
	C700.999756,708.750793 699.940552,707.525818 700.097168,706.483521 
	C700.890564,701.203796 701.930847,695.957214 703.014038,690.725830 
	C704.685425,682.653992 706.288452,674.559570 708.329956,666.579529 
	C708.775269,664.838989 710.947327,663.540100 712.324097,662.037842 
	C713.213928,662.976013 714.103760,663.914307 714.996033,665.275879 
z"/>
<path fill="#000000" opacity="1.000000" stroke="none" 
	d="
M774.176941,664.234009 
	C775.810120,663.351685 777.213928,662.788269 778.617798,662.224792 
	C779.077209,663.705994 780.078979,665.260559 779.890564,666.654175 
	C779.397583,670.301270 778.384766,673.877991 777.518555,677.753784 
	C775.275879,677.753784 772.863647,677.753784 769.474976,677.753784 
	C771.041687,673.129700 772.494629,668.841248 774.176941,664.234009 
z"/>
</svg>